{"title":"[Underwater] Kill la Kill - 25 (OVA) [PS/Xbox Compatible-720p]","uid":11054324,"size":635138859,"categoryP":"video","categoryS":"hd___tv_shows","magnet":"?xt=urn:btih:90782d7448159aaf17c7db65abe8e80833bc7b32&amp;dn=%5BUnderwater%5D+Kill+la+Kill+-+25+%28OVA%29+%5BPS%2FXbox+Compatible-720p%5D&amp;tr=udp%3A%2F%2Ftracker.openbittorrent.com%3A80&amp;tr=udp%3A%2F%2Fopen.demonii.com%3A1337&amp;tr=udp%3A%2F%2Ftracker.coppersurfer.tk%3A6969&amp;tr=udp%3A%2F%2Fexodus.desync.com%3A6969","seeders":1,"leechers":0,"uploader":"kouzanto","files":-1,"time":1411071613,"description":"This is a 720p, hardsubbed, PlayStation/Xbox-compatible re-encode of Underwater's release for the KILL la KILL OVA, a.k.a. episode 25. All translation, subtitling, timing, and typesetting credit goes to Underwater, who can be found at this website: http://underwater.nyaatorrents.org/\n\nIf you want to download the original, soft-subbed, 720p release of this OVA, go here: http://underwater.nyaatorrents.org/?view=kill-la-kill-25\n\nThe CRC32 for this MP4 file is: 469B7692\n\nMediaInfo:\n\nGeneral\nComplete name                  : [Underwater] KILL la KILL - 25 (OVA) - Last Goodbye [Hardsubbed].mp4\nFormat                         : MPEG-4\nFormat profile                 : Base Media\nCodec ID                       : isom\nFile size                      : 606 MiB\nDuration                       : 27mn 18s\nOverall bit rate mode          : Variable\nOverall bit rate               : 3 101 Kbps\nEncoded date                   : UTC 2014-09-18 17:56:19\nTagged date                    : UTC 2014-09-18 17:56:19\n\nVideo\nID                             : 1\nFormat                         : AVC\nFormat/Info                    : Advanced Video Codec\nFormat profile                 : &lt;a class=&quot;__cf_email__&quot; href=&quot;/cdn-cgi/l/email-protection&quot; data-cfemail=&quot;9bd3f2fcf3dbd7afb5aa&quot;&gt;[email&amp;#160;protected]&lt;/a&gt;&lt;script data-cfhash='f9e31' type=&quot;text/javascript&quot;&gt;\n/* &lt;![CDATA[ */!function(){try{var t=&quot;currentScript&quot;in document?document.currentScript:function(){for(var t=document.getElementsByTagName(&quot;script&quot;),e=t.length;e--;)if(t[e].getAttribute(&quot;data-cfhash&quot;))return t[e]}();if(t&amp;&amp;t.previousSibling){var e,r,n,i,c=t.previousSibling,a=c.getAttribute(&quot;data-cfemail&quot;);if(a){for(e=&quot;&quot;,r=parseInt(a.substr(0,2),16),n=2;a.length-n;n+=2)i=parseInt(a.substr(n,2),16)^r,e+=String.fromCharCode(i);e=document.createTextNode(e),c.parentNode.replaceChild(e,c)}t.parentNode.removeChild(t);}}catch(u){}}()/* ]]&gt; */&lt;/script&gt;\nFormat settings, CABAC         : No\nFormat settings, ReFrames      : 4 frames\nCodec ID                       : avc1\nCodec ID/Info                  : Advanced Video Coding\nDuration                       : 27mn 18s\nBit rate                       : 2 969 Kbps\nMaximum bit rate               : 24.0 Mbps\nWidth                          : 1 280 pixels\nHeight                         : 720 pixels\nDisplay aspect ratio           : 16:9\nFrame rate mode                : Constant\nFrame rate                     : 23.976 fps\nColor space                    : YUV\nChroma subsampling             : 4:2:0\nBit depth                      : 8 bits\nScan type                      : Progressive\nBits/(Pixel*Frame)             : 0.134\nStream size                    : 580 MiB (96%)\nWriting library                : x264 core 142 r2431 ac76440\nEncoding settings              : cabac=0 / ref=3 / deblock=0:1:1 / analyse=0x3:0x133 / me=umh / subme=10 / psy=1 / psy_rd=0.40:0.00 / mixed_ref=1 / me_range=24 / chroma_me=1 / trellis=2 / 8x8dct=1 / cqm=0 / deadzone=21,11 / fast_pskip=1 / chroma_qp_offset=-2 / threads=12 / lookahead_threads=1 / sliced_threads=0 / nr=0 / decimate=1 / interlaced=0 / bluray_compat=0 / constrained_intra=0 / bframes=3 / b_pyramid=2 / b_adapt=2 / b_bias=0 / direct=3 / weightb=0 / open_gop=0 / weightp=0 / keyint=240 / keyint_min=23 / scenecut=40 / intra_refresh=0 / rc_lookahead=60 / rc=crf / mbtree=1 / crf=17.5 / qcomp=0.60 / qpmin=0 / qpmax=69 / qpstep=4 / vbv_maxrate=24000 / vbv_bufsize=24000 / crf_max=0.0 / nal_hrd=none / filler=0 / ip_ratio=1.40 / aq=1:0.60\nEncoded date                   : UTC 2014-09-18 09:08:36\nTagged date                    : UTC 2014-09-18 17:56:21\n\nAudio\nID                             : 2\nFormat                         : AAC\nFormat/Info                    : Advanced Audio Codec\nFormat profile                 : LC\nCodec ID                       : 40\nDuration                       : 27mn 18s\nBit rate mode                  : Variable\nBit rate                       : 128 Kbps\nMaximum bit rate               : 137 Kbps\nChannel(s)                     : 2 channels\nChannel positions              : Front: L R\nSampling rate                  : 48.0 KHz\nCompression mode               : Lossy\nStream size                    : 25.0 MiB (4%)\nLanguage                       : Japanese\nEncoded date                   : UTC 2014-09-18 08:09:52\nTagged date                    : UTC 2014-09-18 17:56:21\n\nMenu\n00:00:00.000                   : Intro\n00:02:59.150                   : OP\n00:04:29.240                   : Episode\n00:25:48.560                   : Credits","torrent":{"xt":"urn:btih:90782d7448159aaf17c7db65abe8e80833bc7b32","amp;dn":"%5BUnderwater%5D+Kill+la+Kill+-+25+%28OVA%29+%5BPS%2FXbox+Compatible-720p%5D","amp;tr":["udp%3A%2F%2Ftracker.openbittorrent.com%3A80","udp%3A%2F%2Fopen.demonii.com%3A1337","udp%3A%2F%2Ftracker.coppersurfer.tk%3A6969","udp%3A%2F%2Fexodus.desync.com%3A6969"],"infoHash":"90782d7448159aaf17c7db65abe8e80833bc7b32","infoHashBuffer":{"type":"Buffer","data":[144,120,45,116,72,21,154,175,23,199,219,101,171,232,232,8,51,188,123,50]},"announce":[],"urlList":[]}}